<svg viewBox="0 0 680 648" width="100%" role="img" xmlns="http://www.w3.org/2000/svg">
<title>drill12 一次完整任务中机器狗的行走路线</title>
<desc>1800 米场地内，狗从原点出发依次经过七个覆盖扫描点与十六个清除点，路径总长 15.0 公里。</desc>
<defs>
<marker id="arrow" viewBox="0 0 10 10" refX="8" refY="5" markerWidth="6" markerHeight="6" orient="auto-start-reverse">
<path d="M2 1L8 5L2 9" fill="none" stroke="context-stroke" stroke-width="1.5" stroke-linecap="round" stroke-linejoin="round"/>
</marker>
</defs>
<circle cx="340.0" cy="296.0" r="250.0" fill="var(--color-background-secondary)" stroke="#888780" stroke-width="0.8"/>
<circle cx="340.0" cy="296.0" r="138.9" fill="none" stroke="#5F5E5A" stroke-width="0.5" stroke-dasharray="3 4" opacity="0.55"/><circle cx="499.7" cy="296.0" r="138.9" fill="none" stroke="#5F5E5A" stroke-width="0.5" stroke-dasharray="3 4" opacity="0.55"/><circle cx="419.9" cy="157.7" r="138.9" fill="none" stroke="#5F5E5A" stroke-width="0.5" stroke-dasharray="3 4" opacity="0.55"/><circle cx="260.1" cy="157.7" r="138.9" fill="none" stroke="#5F5E5A" stroke-width="0.5" stroke-dasharray="3 4" opacity="0.55"/><circle cx="180.3" cy="296.0" r="138.9" fill="none" stroke="#5F5E5A" stroke-width="0.5" stroke-dasharray="3 4" opacity="0.55"/><circle cx="260.1" cy="434.3" r="138.9" fill="none" stroke="#5F5E5A" stroke-width="0.5" stroke-dasharray="3 4" opacity="0.55"/><circle cx="419.9" cy="434.3" r="138.9" fill="none" stroke="#5F5E5A" stroke-width="0.5" stroke-dasharray="3 4" opacity="0.55"/>
<circle cx="340.0" cy="296.0" r="159.7" fill="none" stroke="#5F5E5A" stroke-width="0.5" stroke-dasharray="4 5" opacity="0.8"/>
<circle cx="340.0" cy="296.0" r="3.4" fill="var(--color-background-primary)" stroke="#B4B2A9" stroke-width="1.2"/><circle cx="499.7" cy="296.0" r="3.4" fill="var(--color-background-primary)" stroke="#B4B2A9" stroke-width="1.2"/><circle cx="419.9" cy="157.7" r="3.4" fill="var(--color-background-primary)" stroke="#B4B2A9" stroke-width="1.2"/><circle cx="260.1" cy="157.7" r="3.4" fill="var(--color-background-primary)" stroke="#B4B2A9" stroke-width="1.2"/><circle cx="180.3" cy="296.0" r="3.4" fill="var(--color-background-primary)" stroke="#B4B2A9" stroke-width="1.2"/><circle cx="260.1" cy="434.3" r="3.4" fill="var(--color-background-primary)" stroke="#B4B2A9" stroke-width="1.2"/><circle cx="419.9" cy="434.3" r="3.4" fill="var(--color-background-primary)" stroke="#B4B2A9" stroke-width="1.2"/>
<polyline points="340.0,296.0 295.0,270.9 297.3,267.2 302.6,260.5 295.3,190.9 293.4,179.2 292.6,173.8 324.5,246.9 305.4,257.1 301.4,258.4 273.2,164.5 260.1,157.7 297.2,131.4 303.6,127.4 246.1,119.5 207.4,144.4 220.7,201.9 168.7,220.5 163.8,222.9 166.2,221.8 180.3,296.0 308.1,336.4 312.9,339.8 339.8,379.3 344.0,385.8 345.5,388.3 346.0,389.1 380.5,423.4 386.2,429.1 388.7,431.5 389.8,432.4 419.9,434.3 342.4,455.1 328.8,458.2 346.1,494.9 381.7,526.8 388.2,532.4 260.1,434.3 499.7,296.0 538.7,262.3 569.4,288.4 532.8,256.5 515.2,176.8 512.5,162.0 511.5,157.2 419.9,157.7 371.4,78.6 363.0,64.4" fill="none" stroke="#5DCAA5" stroke-width="1.6" stroke-linejoin="round" opacity="0.9"/>
<circle cx="340.0" cy="296.0" r="2.2" fill="#5DCAA5" opacity="0.75"/><circle cx="295.0" cy="270.9" r="2.2" fill="#5DCAA5" opacity="0.75"/><circle cx="297.3" cy="267.2" r="2.2" fill="#5DCAA5" opacity="0.75"/><circle cx="302.6" cy="260.5" r="2.2" fill="#5DCAA5" opacity="0.75"/><circle cx="295.3" cy="190.9" r="2.2" fill="#5DCAA5" opacity="0.75"/><circle cx="293.4" cy="179.2" r="2.2" fill="#5DCAA5" opacity="0.75"/><circle cx="292.6" cy="173.8" r="2.2" fill="#5DCAA5" opacity="0.75"/><circle cx="324.5" cy="246.9" r="2.2" fill="#5DCAA5" opacity="0.75"/><circle cx="305.4" cy="257.1" r="2.2" fill="#5DCAA5" opacity="0.75"/><circle cx="301.4" cy="258.4" r="2.2" fill="#5DCAA5" opacity="0.75"/><circle cx="273.2" cy="164.5" r="2.2" fill="#5DCAA5" opacity="0.75"/><circle cx="260.1" cy="157.7" r="2.2" fill="#5DCAA5" opacity="0.75"/><circle cx="297.2" cy="131.4" r="2.2" fill="#5DCAA5" opacity="0.75"/><circle cx="303.6" cy="127.4" r="2.2" fill="#5DCAA5" opacity="0.75"/><circle cx="246.1" cy="119.5" r="2.2" fill="#5DCAA5" opacity="0.75"/><circle cx="207.4" cy="144.4" r="2.2" fill="#5DCAA5" opacity="0.75"/><circle cx="220.7" cy="201.9" r="2.2" fill="#5DCAA5" opacity="0.75"/><circle cx="168.7" cy="220.5" r="2.2" fill="#5DCAA5" opacity="0.75"/><circle cx="163.8" cy="222.9" r="2.2" fill="#5DCAA5" opacity="0.75"/><circle cx="166.2" cy="221.8" r="2.2" fill="#5DCAA5" opacity="0.75"/><circle cx="180.3" cy="296.0" r="2.2" fill="#5DCAA5" opacity="0.75"/><circle cx="308.1" cy="336.4" r="2.2" fill="#5DCAA5" opacity="0.75"/><circle cx="312.9" cy="339.8" r="2.2" fill="#5DCAA5" opacity="0.75"/><circle cx="339.8" cy="379.3" r="2.2" fill="#5DCAA5" opacity="0.75"/><circle cx="344.0" cy="385.8" r="2.2" fill="#5DCAA5" opacity="0.75"/><circle cx="345.5" cy="388.3" r="2.2" fill="#5DCAA5" opacity="0.75"/><circle cx="346.0" cy="389.1" r="2.2" fill="#5DCAA5" opacity="0.75"/><circle cx="380.5" cy="423.4" r="2.2" fill="#5DCAA5" opacity="0.75"/><circle cx="386.2" cy="429.1" r="2.2" fill="#5DCAA5" opacity="0.75"/><circle cx="388.7" cy="431.5" r="2.2" fill="#5DCAA5" opacity="0.75"/><circle cx="389.8" cy="432.4" r="2.2" fill="#5DCAA5" opacity="0.75"/><circle cx="419.9" cy="434.3" r="2.2" fill="#5DCAA5" opacity="0.75"/><circle cx="342.4" cy="455.1" r="2.2" fill="#5DCAA5" opacity="0.75"/><circle cx="328.8" cy="458.2" r="2.2" fill="#5DCAA5" opacity="0.75"/><circle cx="346.1" cy="494.9" r="2.2" fill="#5DCAA5" opacity="0.75"/><circle cx="381.7" cy="526.8" r="2.2" fill="#5DCAA5" opacity="0.75"/><circle cx="388.2" cy="532.4" r="2.2" fill="#5DCAA5" opacity="0.75"/><circle cx="260.1" cy="434.3" r="2.2" fill="#5DCAA5" opacity="0.75"/><circle cx="499.7" cy="296.0" r="2.2" fill="#5DCAA5" opacity="0.75"/><circle cx="538.7" cy="262.3" r="2.2" fill="#5DCAA5" opacity="0.75"/><circle cx="569.4" cy="288.4" r="2.2" fill="#5DCAA5" opacity="0.75"/><circle cx="532.8" cy="256.5" r="2.2" fill="#5DCAA5" opacity="0.75"/><circle cx="515.2" cy="176.8" r="2.2" fill="#5DCAA5" opacity="0.75"/><circle cx="512.5" cy="162.0" r="2.2" fill="#5DCAA5" opacity="0.75"/><circle cx="511.5" cy="157.2" r="2.2" fill="#5DCAA5" opacity="0.75"/><circle cx="419.9" cy="157.7" r="2.2" fill="#5DCAA5" opacity="0.75"/><circle cx="371.4" cy="78.6" r="2.2" fill="#5DCAA5" opacity="0.75"/><circle cx="363.0" cy="64.4" r="2.2" fill="#5DCAA5" opacity="0.75"/>
<circle cx="292.6" cy="173.8" r="4.6" fill="#EF9F27" stroke="#412402" stroke-width="0.6"/><circle cx="301.4" cy="258.4" r="4.6" fill="#EF9F27" stroke="#412402" stroke-width="0.6"/><circle cx="273.2" cy="164.5" r="4.6" fill="#EF9F27" stroke="#412402" stroke-width="0.6"/><circle cx="303.6" cy="127.4" r="4.6" fill="#EF9F27" stroke="#412402" stroke-width="0.6"/><circle cx="246.1" cy="119.5" r="4.6" fill="#EF9F27" stroke="#412402" stroke-width="0.6"/><circle cx="207.4" cy="144.4" r="4.6" fill="#EF9F27" stroke="#412402" stroke-width="0.6"/><circle cx="220.7" cy="201.9" r="4.6" fill="#EF9F27" stroke="#412402" stroke-width="0.6"/><circle cx="166.2" cy="221.8" r="4.6" fill="#EF9F27" stroke="#412402" stroke-width="0.6"/><circle cx="346.0" cy="389.1" r="4.6" fill="#EF9F27" stroke="#412402" stroke-width="0.6"/><circle cx="389.8" cy="432.4" r="4.6" fill="#EF9F27" stroke="#412402" stroke-width="0.6"/><circle cx="328.8" cy="458.2" r="4.6" fill="#EF9F27" stroke="#412402" stroke-width="0.6"/><circle cx="346.1" cy="494.9" r="4.6" fill="#EF9F27" stroke="#412402" stroke-width="0.6"/><circle cx="388.2" cy="532.4" r="4.6" fill="#EF9F27" stroke="#412402" stroke-width="0.6"/><circle cx="569.4" cy="288.4" r="4.6" fill="#EF9F27" stroke="#412402" stroke-width="0.6"/><circle cx="511.5" cy="157.2" r="4.6" fill="#EF9F27" stroke="#412402" stroke-width="0.6"/><circle cx="363.0" cy="64.4" r="4.6" fill="#EF9F27" stroke="#412402" stroke-width="0.6"/>
<circle cx="340.0" cy="296.0" r="5.2" fill="none" stroke="#5DCAA5" stroke-width="1.6"/>
<g font-size="12" fill="#B4B2A9">
<circle cx="60" cy="596" r="3.4" fill="var(--color-background-primary)" stroke="#B4B2A9" stroke-width="1.2"/>
<text x="74" y="596" dominant-baseline="central">七个覆盖扫描点</text>
<circle cx="205" cy="596" r="4.6" fill="#EF9F27" stroke="#412402" stroke-width="0.6"/>
<text x="219" y="596" dominant-baseline="central">清除点（干扰源位置，16 个）</text>
<circle cx="437" cy="596" r="2.2" fill="#5DCAA5"/>
<text x="451" y="596" dominant-baseline="central">实际停靠点（48 个）</text>
<text x="60" y="622" font-size="12" fill="#888780">路径总长 15.0 km ｜ 虚线圆为各扫描点 1000 m 接收范围，其并集完整覆盖场地</text>
</g>
</svg>